# xmcd CD database file
#
# Track frame offsets:
#	150
#	23827
#	44514
#	65393
#	81760
#	97883
#	117436
#	137914
#	155057
#	172416
#	194369
#	211183
#	233757
#
# Disc length: 3381 seconds
#
# Revision: 0
# Processed by: cddbd v1.5.1PL0 Copyright (c) Steve Scherf et al.
# Submitted via: CDex 1.51
#
DISCID=b60d330d
DTITLE=Trammell Starks - Weather Music Disc 2
DYEAR=1900
DGENRE=Jazz
TTITLE0=14
TTITLE1=15
TTITLE2=16
TTITLE3=17
TTITLE4=18
TTITLE5=19
TTITLE6=20
TTITLE7=21
TTITLE8=22
TTITLE9=23
TTITLE10=24
TTITLE11=25
TTITLE12=26
EXTD=
EXTT0=
EXTT1=
EXTT2=
EXTT3=
EXTT4=
EXTT5=
EXTT6=
EXTT7=
EXTT8=
EXTT9=
EXTT10=
EXTT11=
EXTT12=
PLAYORDER=
